<svg width="92" height="34" viewBox="0 0 92 34" fill="none" xmlns="http://www.w3.org/2000/svg">
<path d="M9.6 32.608C9.184 31.328 8.816 30.08 8.496 28.864L6.96 23.584C6.448 21.856 6.048 20.56 5.76 19.696C5.504 18.736 5.296 18.016 5.136 17.536L0.24 0.975999H10.032L19.008 34H10.032L9.6 32.608ZM17.136 19.36L21.984 0.975999H31.584L26.688 17.536L24.912 23.584C24.336 25.44 23.808 27.2 23.328 28.864C23.008 30.08 22.64 31.328 22.224 32.608L21.792 34H21.12L17.136 19.36ZM34.9481 0.975999H44.5481V34H34.9481V0.975999ZM46.5641 0.975999H58.7561V8.32H46.5641V0.975999ZM46.5641 13.648H56.5001V20.992H46.5641V13.648ZM46.5641 26.656H58.7561V34H46.5641V26.656ZM64.5263 0.975999H74.1263V34H64.5263V0.975999ZM76.1423 16.384H77.2943C78.3183 16.384 79.0703 16.352 79.5503 16.288C80.0623 16.192 80.4623 16 80.7503 15.712C81.0383 15.456 81.2143 15.088 81.2783 14.608C81.3743 14.096 81.4223 13.344 81.4223 12.352C81.4223 11.36 81.3743 10.624 81.2783 10.144C81.2143 9.632 81.0383 9.232 80.7503 8.944C80.4623 8.688 80.0623 8.528 79.5503 8.464C79.0383 8.368 78.2863 8.32 77.2943 8.32H76.1423V0.975999H80.1263C82.4943 0.975999 84.4143 1.216 85.8863 1.696C87.3903 2.144 88.5263 2.848 89.2943 3.808C90.0303 4.704 90.5263 5.84 90.7823 7.216C91.0383 8.56 91.1663 10.272 91.1663 12.352C91.1663 14.336 91.0383 15.984 90.7823 17.296C90.5583 18.608 90.0943 19.712 89.3903 20.608C88.5903 21.632 87.4383 22.416 85.9343 22.96C84.4623 23.472 82.5263 23.728 80.1263 23.728H76.1423V16.384Z" fill="#FFD1A1"/>
</svg>
